<?xml version="1.0" standalone="no"?>
<!DOCTYPE svg PUBLIC "-//W3C//DTD SVG 20010904//EN"
 "http://www.w3.org/TR/2001/REC-SVG-20010904/DTD/svg10.dtd">
<svg version="1.0" xmlns="http://www.w3.org/2000/svg"
 width="500.000000pt" height="500.000000pt" viewBox="0 0 500.000000 500.000000"
 preserveAspectRatio="xMidYMid meet">

<g transform="translate(0.000000,500.000000) scale(0.100000,-0.100000)"
fill="#000000" stroke="none">
<path d="M2440 2545 l0 -545 100 0 100 0 0 545 0 545 -100 0 -100 0 0 -545z"/>
<path d="M2855 3080 c-3 -5 -5 -39 -3 -75 l3 -65 102 0 103 0 0 75 0 75 -99 0
c-55 0 -102 -4 -106 -10z"/>
<path d="M616 2796 c-47 -18 -100 -67 -129 -121 l-22 -40 -3 78 -3 77 -100 0
-100 0 3 -392 3 -393 102 -3 101 -3 4 258 c4 285 10 318 70 368 41 35 106 35
140 0 43 -42 48 -84 48 -364 l0 -261 104 0 105 0 3 268 c3 291 6 303 65 358
38 35 105 33 143 -4 42 -42 50 -103 50 -377 l0 -245 101 0 100 0 -3 313 -3
312 -26 56 c-44 94 -128 138 -239 125 -76 -9 -131 -45 -173 -111 l-34 -55 -29
57 c-22 45 -39 63 -72 82 -55 29 -151 37 -206 17z"/>
<path d="M1813 2800 c-102 -22 -179 -77 -214 -155 -32 -71 -29 -75 55 -75 40
0 87 -3 104 -6 29 -6 31 -4 42 35 14 53 42 71 107 71 70 0 100 -26 113 -99 18
-97 24 -91 -92 -91 -203 0 -309 -40 -358 -135 -20 -40 -25 -63 -25 -125 1 -92
28 -149 93 -195 42 -29 48 -30 146 -30 97 0 105 2 151 30 27 17 64 50 82 73
l32 42 11 -38 c22 -85 83 -120 191 -108 87 9 89 11 89 72 l0 54 -32 0 c-71 0
-78 24 -78 269 0 158 -3 207 -17 246 -21 63 -85 127 -149 149 -57 21 -191 29
-251 16z m213 -444 c3 -8 0 -40 -6 -71 -24 -113 -127 -183 -213 -144 -32 14
-47 49 -47 105 0 53 12 79 43 96 50 27 214 38 223 14z"/>
<path d="M3510 2800 c-66 -14 -145 -56 -179 -96 -76 -86 -106 -191 -99 -346 4
-90 9 -114 35 -169 41 -89 74 -123 151 -161 64 -32 71 -33 187 -33 113 0 123
2 179 30 71 36 129 99 156 173 17 44 18 57 8 63 -7 5 -54 9 -104 9 l-91 0 -12
-39 c-6 -22 -27 -53 -46 -70 -31 -27 -43 -31 -92 -31 -51 0 -58 3 -93 38 -49
49 -64 101 -64 232 0 157 35 239 114 260 80 22 159 -20 178 -93 5 -21 14 -32
25 -31 9 0 55 1 102 2 98 2 100 5 61 87 -29 63 -111 138 -174 159 -58 21 -182
28 -242 16z"/>
<path d="M4335 2796 c-187 -46 -289 -215 -271 -447 13 -166 81 -275 205 -333
39 -18 65 -21 166 -21 109 0 125 2 175 26 70 33 126 88 156 153 42 90 36 96
-92 96 -72 0 -85 -3 -90 -17 -27 -86 -70 -123 -144 -123 -104 0 -150 70 -158
235 -8 176 29 269 117 296 74 22 159 -26 175 -99 l7 -28 97 4 c53 2 100 7 104
11 11 10 -30 104 -63 144 -79 95 -240 139 -384 103z"/>
<path d="M2856 2773 c-4 -9 -6 -186 -6 -395 l1 -378 105 0 104 0 0 395 0 395
-99 0 c-83 0 -100 -3 -105 -17z"/>
</g>
</svg>
